# xmcd
#
# Track frame offsets:
#	150
#	10613
#	22561
#	32738
#	43760
#	56183
#	67421
#	81283
#	91424
#	105268
#	117923
#	129394
#	143493
#	155827
#	168904
#	180589
#	190963
#	203559
#	214316
#	226589
#	240799
#	254529
#	265062
#
# Disc length: 3770
#
# Revision: 2
# Processed by: cddbd v1.5.1PL0 Copyright (c) Steve Scherf et al.
# Submitted via: audiograbber 1.83.01
# Normalized: r1:TDELIM( - )
#
DISCID=2c0eb817
DTITLE=The ways of the blues - Boogie Woogie of the blues
DYEAR=1900
DGENRE=
TTITLE0=Boogie woogie prayer part 1 - The boogie woogie boys - Pete Johnson-Meade Lux Lewis-Albert ammons
TTITLE1=Dupree shake dance - Champion Jack Dupree
TTITLE2=Mister Boogie - Sir Charles Thompson
TTITLE3=Ridin' the blinds - Top Topham
TTITLE4=How am I doing it - Champion Jack Dupree
TTITLE5=Big 3 Boogie - Willie Dixon
TTITLE6=Baby boogie woogie - Curley weaver and Clarence Moore
TTITLE7=Boogie woogie - Calvin Frazier
TTITLE8=Down the road a piece - Freddie Slack with the Will Bradley trio
TTITLE9=I love you baby boogie - Willie Smith
TTITLE10=Boogie woogie prayer part 2 - The boogie woogie boys - Pete Johnson-Meade Lux Lewis-Albert ammons
TTITLE11=Honky tonk train blues - Red Saunders and his orchestra
TTITLE12=Soon this morning NO 2 - Charlie Spand
TTITLE13=Boo woo - Harry James and the boogie woogie trio
TTITLE14=Old quaker blues - Jimmy Yancey
TTITLE15=Honky tonk train blues - Adrian Rollini trio
TTITLE16=Roll'em pete - Peter Johnson with Big Joe Turner
TTITLE17=Shout for joy - Albert Ammons
TTITLE18=Rockin' pneumonia and the boogie woogie flu - Jellybread
TTITLE19=Layin in my cell, sleepin' - Sunnyland Slim
TTITLE20=Moaning and groaning - Johnny Young
TTITLE21=Tatum pole boogie - Art Tatum
TTITLE22=Panic street - Memphis Slim
EXTD=
EXTT0=
EXTT1=
EXTT2=
EXTT3=
EXTT4=
EXTT5=
EXTT6=
EXTT7=
EXTT8=
EXTT9=
EXTT10=
EXTT11=
EXTT12=
EXTT13=
EXTT14=
EXTT15=
EXTT16=
EXTT17=
EXTT18=
EXTT19=
EXTT20=
EXTT21=
EXTT22=
PLAYORDER=
